<svg id="Layer_1" data-name="Layer 1" xmlns="http://www.w3.org/2000/svg" viewBox="0 0 199.44 85.73"><defs><style>.cls-1,.cls-2{stroke:#fff;stroke-miterlimit:10;}.cls-1{stroke-width:2px;}.cls-3{fill:#fff;}</style></defs><polygon class="cls-1" points="99.16 84.73 75.92 84.73 50.47 42.34 50.47 3.61 99.16 84.73"/><polygon class="cls-1" points="50.46 3.61 50.46 42.33 44.86 51.67 33.24 71.03 21.61 51.68 33.24 32.31 50.46 3.61"/><polygon class="cls-1" points="44.86 51.67 33.24 32.31 33.23 32.31 33.23 32.31 21.61 51.67 1.77 84.72 25.02 84.72 33.23 71.03 33.23 71.03 33.24 71.03 41.45 84.72 64.7 84.72 44.86 51.67"/><path class="cls-2" d="M126.73,97.51V79l9.48-12v9l11.85-15.53a2.2,2.2,0,0,1,3.49,0L163.4,75.94v-9L172.88,79V97.51A2.19,2.19,0,0,1,169,98.84L149.8,73.75,130.66,98.84A2.19,2.19,0,0,1,126.73,97.51Z" transform="translate(0.94 -15.49)"/><polygon class="cls-3" points="179.48 62.91 178.44 61.52 180.53 64.26 180.52 64.26 179.48 62.91"/><polygon class="cls-3" points="120.95 64.26 123.58 60.82 120.96 64.27 120.95 64.26"/><path class="cls-2" d="M105.56,98.87l44.25-58.21,44.24,58.21A2.2,2.2,0,0,0,198,97.54V21.21A2.19,2.19,0,0,0,195.81,19H166.08a2.2,2.2,0,0,0-2.2,2.19V34.83l9.49,12.43V28.5h15.14v47l-37-48.19a2.2,2.2,0,0,0-3.49,0l-37,48.19v-47h15.14V47.26l9.49-12.43V21.21a2.2,2.2,0,0,0-2.2-2.19H103.8a2.19,2.19,0,0,0-2.19,2.19V97.54A2.2,2.2,0,0,0,105.56,98.87Z" transform="translate(0.94 -15.49)"/></svg>